<svg xmlns="http://www.w3.org/2000/svg"
 xmlns:xlink="http://www.w3.org/1999/xlink"
 width="19px" height="20px"  viewBox="0 0 19 20">
<path fill-rule="evenodd"  fill="#ffffff"
 d="M16.663116,6.0004883 C16.663116,6.0004883 10.987396,6.0004883 10.987396,6.0004883 C10.987396,6.0004883 13.226288,3.3127441 13.226288,3.3127441 C13.262085,3.3190918 13.292908,3.3330078 13.330048,3.3330078 C13.698517,3.3330078 13.996704,3.034668 13.996704,2.6658936 C13.996704,2.2990723 13.698517,1.9986572 13.330048,1.9986572 C12.963379,1.9986572 12.663422,2.2990723 12.663422,2.6658936 C12.663422,2.74646 12.683502,2.8205566 12.709259,2.8917236 C12.709259,2.8917236 10.119476,6.0004883 10.119476,6.0004883 C10.119476,6.0004883 9.875549,6.0004883 9.875549,6.0004883 C9.875549,6.0004883 7.2869873,2.8917236 7.2869873,2.8917236 C7.312134,2.8205566 7.331604,2.74646 7.331604,2.6658936 C7.331604,2.2990723 7.0335083,1.9986572 6.664978,1.9986572 C6.297699,1.9986572 5.9983215,2.2990723 5.9983215,2.6658936 C5.9983215,3.034668 6.297699,3.3330078 6.664978,3.3330078 C6.7020264,3.3330078 6.734131,3.3190918 6.768738,3.3127441 C6.768738,3.3127441 9.00824,6.0004883 9.00824,6.0004883 C9.00824,6.0004883 3.332428,6.0004883 3.332428,6.0004883 C2.5965881,6.0004883 1.9998169,6.5982666 1.9998169,7.3339844 C1.9998169,7.3339844 1.9998169,16.671509 1.9998169,16.671509 C1.9998169,17.407715 2.5965881,18.00476 3.332428,18.00476 C3.332428,18.00476 16.663116,18.00476 16.663116,18.00476 C17.399048,18.00476 17.99582,17.407715 17.99582,16.671509 C17.99582,16.671509 17.99582,7.3339844 17.99582,7.3339844 C17.99582,6.5982666 17.399048,6.0004883 16.663116,6.0004883 ZM13.996704,15.337402 C13.996704,16.073608 13.400452,16.671509 12.663422,16.671509 C12.663422,16.671509 4.6657104,16.671509 4.6657104,16.671509 C3.9298706,16.671509 3.332428,16.073608 3.332428,15.337402 C3.332428,15.337402 3.332428,8.668091 3.332428,8.668091 C3.332428,7.9311523 3.9298706,7.3339844 4.6657104,7.3339844 C4.6657104,7.3339844 12.663422,7.3339844 12.663422,7.3339844 C13.400452,7.3339844 13.996704,7.9311523 13.996704,8.668091 C13.996704,8.668091 13.996704,15.337402 13.996704,15.337402 ZM15.960693,9.376709 C15.434967,9.376709 15.008575,8.949341 15.008575,8.423828 C15.008575,7.897827 15.434967,7.4718018 15.960693,7.4718018 C16.48587,7.4718018 16.9122,7.897827 16.9122,8.423828 C16.9122,8.949341 16.48587,9.376709 15.960693,9.376709 Z"/>
</svg>